<svg width="25" height="29" viewBox="0 0 25 29" fill="none" xmlns="http://www.w3.org/2000/svg">
<path d="M17.7891 7.60547V6.05859C17.7891 5.9168 17.673 5.80078 17.5312 5.80078H5.15625C5.01445 5.80078 4.89844 5.9168 4.89844 6.05859V7.60547C4.89844 7.74727 5.01445 7.86328 5.15625 7.86328H17.5312C17.673 7.86328 17.7891 7.74727 17.7891 7.60547ZM5.15625 10.4414C5.01445 10.4414 4.89844 10.5574 4.89844 10.6992V12.2461C4.89844 12.3879 5.01445 12.5039 5.15625 12.5039H11.0859C11.2277 12.5039 11.3438 12.3879 11.3438 12.2461V10.6992C11.3438 10.5574 11.2277 10.4414 11.0859 10.4414H5.15625ZM17.2734 14.1797C13.4288 14.1797 10.3125 17.296 10.3125 21.1406C10.3125 24.9853 13.4288 28.1016 17.2734 28.1016C21.1181 28.1016 24.2344 24.9853 24.2344 21.1406C24.2344 17.296 21.1181 14.1797 17.2734 14.1797ZM20.7378 24.605C19.8129 25.5299 18.5818 26.0391 17.2734 26.0391C15.965 26.0391 14.734 25.5299 13.8091 24.605C12.8842 23.6801 12.375 22.449 12.375 21.1406C12.375 19.8322 12.8842 18.6012 13.8091 17.6763C14.734 16.7514 15.965 16.2422 17.2734 16.2422C18.5818 16.2422 19.8129 16.7514 20.7378 17.6763C21.6627 18.6012 22.1719 19.8322 22.1719 21.1406C22.1719 22.449 21.6627 23.6801 20.7378 24.605ZM20.1416 18.6914H18.714C18.6302 18.6914 18.5528 18.7301 18.5045 18.7978L16.4581 21.6272L15.7137 20.5992C15.6898 20.566 15.6584 20.539 15.6219 20.5205C15.5854 20.502 15.5451 20.4925 15.5042 20.4929H14.083C13.8735 20.4929 13.7511 20.7313 13.8735 20.9021L16.2519 24.1925C16.355 24.3343 16.5645 24.3343 16.6676 24.1925L20.3479 19.1007C20.4735 18.9299 20.3511 18.6914 20.1416 18.6914ZM9.79688 25.0078H2.32031V2.32031H20.3672V13.4062C20.3672 13.548 20.4832 13.6641 20.625 13.6641H22.4297C22.5715 13.6641 22.6875 13.548 22.6875 13.4062V1.03125C22.6875 0.46084 22.2267 0 21.6562 0H1.03125C0.46084 0 0 0.46084 0 1.03125V26.2969C0 26.8673 0.46084 27.3281 1.03125 27.3281H9.79688C9.93867 27.3281 10.0547 27.2121 10.0547 27.0703V25.2656C10.0547 25.1238 9.93867 25.0078 9.79688 25.0078Z" fill="#225767"/>
</svg>
