<svg width="33" height="33" viewBox="0 0 33 33" fill="none" xmlns="http://www.w3.org/2000/svg">
<g clip-path="url(#clip0_218_14)">
<path d="M16.4999 1.83325C13.5991 1.83325 10.7635 2.69344 8.35156 4.30503C5.93964 5.91662 4.05978 8.20724 2.94969 10.8872C1.83961 13.5672 1.54916 16.5162 2.11507 19.3612C2.68099 22.2063 4.07786 24.8196 6.12903 26.8708C8.1802 28.922 10.7935 30.3189 13.6386 30.8848C16.4837 31.4507 19.4326 31.1602 22.1126 30.0502C24.7926 28.9401 27.0832 27.0602 28.6948 24.6483C30.3064 22.2364 31.1666 19.4007 31.1666 16.4999C31.1666 12.6101 29.6214 8.87955 26.8708 6.12902C24.1203 3.37849 20.3898 1.83325 16.4999 1.83325ZM16.4999 29.3333C13.9617 29.3333 11.4805 28.5806 9.37011 27.1704C7.25968 25.7603 5.6148 23.756 4.64347 21.411C3.67215 19.066 3.418 16.4857 3.91318 13.9963C4.40836 11.5068 5.63061 9.22015 7.42539 7.42538C9.22016 5.63061 11.5068 4.40835 13.9963 3.91317C16.4857 3.418 19.066 3.67214 21.411 4.64346C23.756 5.61479 25.7603 7.25967 27.1705 9.3701C28.5806 11.4805 29.3333 13.9617 29.3333 16.4999C29.3333 19.9035 27.9812 23.1677 25.5745 25.5745C23.1677 27.9812 19.9035 29.3333 16.4999 29.3333Z" fill="#225767"/>
<path d="M17.3433 16.8667V9.85417C17.3433 9.61105 17.2468 9.37789 17.0749 9.20599C16.9029 9.03408 16.6698 8.9375 16.4267 8.9375C16.1836 8.9375 15.9504 9.03408 15.7785 9.20599C15.6066 9.37789 15.51 9.61105 15.51 9.85417V17.8475L20.9183 21.5142C21.018 21.5891 21.1318 21.6429 21.253 21.6723C21.3741 21.7018 21.5 21.7062 21.6229 21.6853C21.7458 21.6644 21.8631 21.6187 21.9677 21.5509C22.0724 21.4832 22.1621 21.3947 22.2314 21.2911C22.3006 21.1875 22.3481 21.0708 22.3707 20.9482C22.3934 20.8257 22.3908 20.6997 22.3632 20.5782C22.3355 20.4566 22.2833 20.342 22.2099 20.2413C22.1364 20.1406 22.0432 20.0559 21.9358 19.9925L17.3433 16.8667Z" fill="#225767"/>
<path d="M7.33332 16.445C7.32493 14.796 7.76424 13.1756 8.6044 11.7566C9.44455 10.3376 10.6541 9.17317 12.104 8.38753C13.5539 7.60189 15.1898 7.22447 16.8373 7.2955C18.4849 7.36653 20.0822 7.88335 21.4592 8.79086L22.2383 7.54419C20.9304 6.68748 19.4491 6.13106 17.9006 5.9149C16.3521 5.69875 14.775 5.82823 13.2825 6.29404C11.79 6.75985 10.4192 7.55043 9.26861 8.60899C8.11799 9.66754 7.21608 10.9678 6.6277 12.4163C6.03931 13.8649 5.77905 15.4258 5.8656 16.9869C5.95216 18.5479 6.38338 20.0705 7.1283 21.4451C7.87321 22.8197 8.91333 24.0123 10.1739 24.9372C11.4345 25.862 12.8843 26.4962 14.4191 26.7942L14.6666 25.3917C12.6023 24.9703 10.7461 23.8507 9.41049 22.2212C8.07486 20.5918 7.34132 18.5519 7.33332 16.445Z" fill="#225767"/>
</g>
<defs>
<clipPath id="clip0_218_14">
<rect width="33" height="33" fill="white"/>
</clipPath>
</defs>
</svg>
